<svg version="1.2" xmlns="http://www.w3.org/2000/svg" viewBox="0 0 120 120" width="1800" height="1800">
	<title>Proyecto nuevo</title>
	<style>
		.s0 { fill: #f2ebe5 } 
		.s1 { fill: #0b0e15 } 
		.s2 { fill: none;stroke: #87b7df;stroke-linecap: round;stroke-linejoin: round;stroke-width: 1.5 } 
	</style>
	<g id="g6">
		<path id="rect39" fill-rule="evenodd" class="s0" d="m105 0.1h-105v107.9h105z"/>
		<g id="g50">
			<path id="path85" class="s1" d="m80.8 54c0 0.9-21.9 5-22.5 5.6-0.7 0.7-4.7 22.6-5.7 22.6-0.9 0-4.9-21.9-5.6-22.6-0.7-0.6-22.5-4.7-22.5-5.6 0-0.9 21.8-5 22.5-5.6 0.7-0.7 4.7-22.6 5.6-22.6 1 0 5 21.9 5.7 22.6 0.6 0.6 22.5 4.7 22.5 5.6z"/>
			<path id="path87" class="s2" d="m27.3 40.6c-0.3-1-0.2-2.1 0.4-2.9 0.5-0.9 1.4-1.5 2.4-1.6 0.8-0.1 1.5 0.1 2.2 0.4 0.6 0.4 1.1 0.9 1.5 1.5 0.8 1.2 0.9 2.8 0.6 4.2-0.4 1.4-1.3 2.6-2.4 3.5-1.1 0.9-2.5 1.4-3.9 1.5-2.4 0.1-4.8-1-6.5-2.8-1.5-1.7-2.4-4.1-2.3-6.4 0.1-2.4 1.1-4.7 2.9-6.3 1.6-1.6 3.9-2.5 6.2-2.5 2.3 0 4.6 0.9 6.3 2.4 1.3 1.2 2.3 2.6 3.2 4.1 0.9 1.4 1.9 2.9 3.1 4.1 2.4 2.2 5.8 3.1 9 3.3 2.7 0.2 5.5-0.1 8.2 0 2.7 0.1 5.6 0.4 7.9 1.8 2.8 1.5 4.8 4.3 5.3 7.3 0.6 3.1-0.4 6.4-2.6 8.6-1.4 1.4-3.1 2.3-4.9 2.9-1.8 0.5-3.7 0.8-5.6 0.8-2.3 0.1-4.5 0-6.7 0.4-1.1 0.2-2.2 0.5-3.2 1-1 0.5-1.9 1.2-2.6 2.1-0.7 0.9-1.2 2.1-1.3 3.3-0.1 1.2 0.2 2.4 0.9 3.4 0.7 1.1 1.8 1.8 2.9 2.1 0.9 0.2 1.7 0.2 2.6 0 0.8-0.1 1.6-0.4 2.4-0.7 1-0.3 1.9-0.7 2.9-0.9 1-0.2 2-0.2 3 0.2 0.5 0.2 1.1 0.5 1.4 1 0.4 0.5 0.6 1.1 0.6 1.6q0 0.6-0.3 1.1-0.4 0.5-0.9 0.8-0.5 0.3-1.1 0.2-0.6 0-1.1-0.3"/>
			<path id="path88" class="s2" d="m49.1 27.1c-0.6 0.3-1.1 0.8-1.4 1.4-0.3 0.6-0.4 1.3-0.3 1.9 0.1 1.1 0.7 2 1.6 2.6 0.8 0.5 1.9 0.8 2.9 0.7 1.4-0.1 2.7-0.8 3.6-1.7 0.9-1 1.5-2.3 1.7-3.6 0.3-2.2-0.5-4.4-1.9-6-1.2-1.2-2.8-2.1-4.5-2.4-1.7-0.3-3.6-0.1-5.1 0.7-1.5 0.6-2.7 1.7-3.6 3-0.9 1.4-1.4 2.9-1.5 4.5-0.1 1.6 0.3 3.2 1 4.7 0.7 1.4 1.8 2.6 3.1 3.5 2.6 1.6 5.7 2 8.7 2.2 2.7 0.2 5.5 0.4 8.3 0.9 2.7 0.5 5.4 1.4 7.7 3 3.6 2.5 6 6.6 6.2 11 0.1 2.1-0.3 4.3-1.2 6.3-1 2-2.4 3.7-4.1 5-2.5 1.7-5.4 2.5-8.3 2.9-3 0.4-6 0.4-8.9 0.6-1 0.1-2 0.2-2.9 0.7-0.4 0.2-0.8 0.5-1 1-0.2 0.4-0.3 0.9-0.2 1.4 0.1 0.4 0.3 0.7 0.6 1q0.4 0.4 1 0.6c0.8 0.2 1.6 0 2.3-0.2 0.8-0.3 1.5-0.7 2.2-1 0.7-0.4 1.5-0.7 2.3-0.7 1 0 2.1 0.4 2.9 1.2"/>
			<path id="path89" class="s2" d="m38.7 54.1c0.8-0.5 1.8-0.7 2.6-0.5 0.9 0.3 1.7 1 2 1.8 0.3 0.8 0.3 1.7 0 2.5-0.3 0.7-0.9 1.4-1.6 1.8-0.6 0.4-1.3 0.7-2.1 0.8-0.7 0-1.5-0.1-2.2-0.3-1.5-0.5-2.7-1.7-3.3-3.1-0.7-1.4-0.7-3.1-0.2-4.6 0.5-1.5 1.7-2.8 3-3.8 1.4-0.9 2.9-1.4 4.6-1.7 3.2-0.5 6.5 0 9.7 0.1 3.4 0.1 7-0.2 10.2 1 1.4 0.5 2.7 1.3 3.7 2.4 0.9 1.1 1.5 2.6 1.5 4.1-0.1 1-0.4 2-1 2.9-0.6 0.8-1.4 1.5-2.2 2-1.8 1.1-3.9 1.5-5.9 1.6-1.9 0.1-3.8 0-5.7 0.1-1.9 0.1-3.8 0.3-5.6 1.1-1.5 0.8-2.8 1.9-3.7 3.3-1 1.4-1.5 3.1-1.7 4.8-0.2 3.1 1 6.2 3.2 8.3"/>
			<path id="path12" class="s1" d="m50 35.6q-0.1 0.6-0.3 1.3c-0.6 2.7-1.2 5.5-1.7 7.7-0.2 1-0.4 2-0.6 2.6q-0.1 0.5-0.2 0.8-0.1 0.3-0.2 0.4-0.1 0-0.4 0.1-0.3 0.1-0.8 0.3c-0.5 0.1-1.2 0.3-2 0.4q0.1 0.4 0.2 0.8 0.1 0.5 0.3 1.1 0.1 0.6 0.4 1.2 0.2 0.6 0.5 1.2 0.3 0.6 0.6 1.1c0.3 0.8 0.7 1.4 0.9 1.9 0.3 0.5 0.5 0.7 0.5 0.7 0 0-1 0.9-2 1.9 0.2 0 0.5 0.1 0.6 0.1q0.5 0.2 0.8 0.3 0.3 0.1 0.4 0.1 0.1 0.1 0.2 0.4 0.1 0.3 0.2 0.8c0.2 0.7 0.4 1.6 0.6 2.6 0.5 2.2 1.1 5 1.7 7.7h1.4l4.7-1c0.5-2.4 1-4.8 1.5-6.7 0.2-1 0.4-1.9 0.6-2.6q0.1-0.5 0.2-0.8 0.1-0.3 0.2-0.4 0 0 0.3-0.1 0.3-0.1 0.8-0.3c0.7-0.1 1.6-0.3 2.7-0.6 0.3-0.1 0.7-0.2 1.1-0.2q0.1-0.5 0.2-0.9 0.2-0.6 0.3-1.1 0.1-0.5 0.2-1 0.1-0.5 0.1-0.9 0-0.4 0-0.9 0-0.5-0.1-1l-1.8-3.2c-1.1-0.2-2-0.5-2.7-0.6q-0.5-0.2-0.8-0.3-0.3-0.1-0.3-0.1-0.1-0.1-0.2-0.4-0.1-0.3-0.2-0.8c-0.2-0.6-0.4-1.6-0.6-2.6-0.5-2.2-1.1-5-1.7-7.7q-0.2-0.6-0.3-1.2-0.1 0-0.2 0-0.4 0.1-0.8 0.1-0.4 0-0.8 0.1-0.5 0-0.9 0-0.4-0.1-0.8-0.1-0.8-0.1-1.6-0.2-0.1 0-0.2 0zm-12.9 15.1c-0.6 0.2-1 0.3-1.6 0.4-1.4 0.3-2.8 0.6-4.1 0.9-1.3 0.3-2.5 0.6-3.5 0.8q-0.8 0.2-1.4 0.4-0.6 0.2-1.1 0.3-0.4 0.2-0.7 0.3-0.1 0.1-0.2 0.1 0 0.1 0 0.1 0 0 0 0.1 0.1 0.1 0.2 0.1 0.3 0.1 0.7 0.3 0.5 0.1 1.1 0.3 0.6 0.2 1.4 0.4c1 0.2 2.2 0.5 3.5 0.8 1.3 0.3 2.7 0.6 4.1 0.9 0.6 0.2 1 0.3 1.6 0.4 0-0.1-0.2-0.4-0.2-0.4l0.3-5.6z"/>
		</g>
	</g>
</svg>